<svg width="129" height="129" viewBox="0 0 129 129" fill="none" xmlns="http://www.w3.org/2000/svg">
<g id="Group 427319366">
<path id="Rectangle 34624279" d="M26.306 10.6058C50.9134 -6.74328 79.2638 -1.30128 103.871 16.0478C138.876 40.7276 134.789 80.2404 107.126 102.001C79.4627 123.761 50.9134 137.844 26.306 120.495C-8.69899 95.8153 -8.69899 35.2856 26.306 10.6058Z" fill="#EBF8FD"/>
<g id="Group 427319358">
<path id="Vector" d="M43.8923 85.9739H18.4082C17.459 85.9728 16.5489 85.5953 15.8777 84.924C15.2064 84.2528 14.8289 83.3427 14.8278 82.3935V44.0975C14.8289 43.1482 15.2064 42.2382 15.8777 41.567C16.5489 40.8957 17.459 40.5182 18.4082 40.5171H43.8923C44.8416 40.5182 45.7516 40.8957 46.4229 41.567C47.0941 42.2382 47.4717 43.1482 47.4727 44.0975V82.3935C47.4717 83.3427 47.0941 84.2528 46.4229 84.924C45.7516 85.5953 44.8416 85.9728 43.8923 85.9739ZM18.4082 40.9383C17.5706 40.9393 16.7676 41.2724 16.1754 41.8647C15.5831 42.4569 15.25 43.2599 15.249 44.0975V82.3935C15.25 83.2311 15.5831 84.0341 16.1754 84.6263C16.7676 85.2186 17.5706 85.5517 18.4082 85.5527H43.8923C44.7299 85.5517 45.5329 85.2186 46.1252 84.6263C46.7174 84.0341 47.0506 83.2311 47.0515 82.3935V44.0975C47.0506 43.2599 46.7174 42.4569 46.1252 41.8647C45.5329 41.2724 44.7299 40.9393 43.8923 40.9383H18.4082Z" fill="#3F3D56"/>
<path id="Vector_2" d="M39.9962 58.9282H22.3047C21.8301 58.9277 21.3751 58.7389 21.0394 58.4033C20.7038 58.0677 20.515 57.6127 20.5145 57.138V48.7135C20.515 48.2389 20.7038 47.7839 21.0394 47.4483C21.3751 47.1127 21.8301 46.9239 22.3047 46.9233H39.9962C40.4708 46.9239 40.9258 47.1127 41.2614 47.4483C41.597 47.7839 41.7858 48.2389 41.7864 48.7135V57.138C41.7858 57.6127 41.597 58.0677 41.2614 58.4033C40.9258 58.7389 40.4708 58.9277 39.9962 58.9282Z" fill="#00BAD2"/>
<path id="Vector_3" d="M38.7324 66.8268H23.5683C23.1215 66.8268 22.6929 66.6493 22.3769 66.3333C22.0609 66.0173 21.8834 65.5888 21.8834 65.1419C21.8834 64.6951 22.0609 64.2665 22.3769 63.9505C22.6929 63.6345 23.1215 63.457 23.5683 63.457H38.7324C39.1793 63.457 39.6078 63.6345 39.9238 63.9505C40.2398 64.2665 40.4173 64.6951 40.4173 65.1419C40.4173 65.5888 40.2398 66.0173 39.9238 66.3333C39.6078 66.6493 39.1793 66.8268 38.7324 66.8268Z" fill="#CCCCCC"/>
<path id="Vector_4" d="M38.7324 73.1437H23.5683C23.1215 73.1437 22.6929 72.9662 22.3769 72.6502C22.0609 72.3342 21.8834 71.9057 21.8834 71.4588C21.8834 71.012 22.0609 70.5834 22.3769 70.2674C22.6929 69.9514 23.1215 69.7739 23.5683 69.7739H38.7324C39.1793 69.7739 39.6078 69.9514 39.9238 70.2674C40.2398 70.5834 40.4173 71.012 40.4173 71.4588C40.4173 71.9057 40.2398 72.3342 39.9238 72.6502C39.6078 72.9662 39.1793 73.1437 38.7324 73.1437Z" fill="#CCCCCC"/>
<path id="Vector_5" d="M38.7324 79.4631H23.5683C23.1215 79.4631 22.6929 79.2855 22.3769 78.9696C22.0609 78.6536 21.8834 78.225 21.8834 77.7782C21.8834 77.3313 22.0609 76.9027 22.3769 76.5868C22.6929 76.2708 23.1215 76.0933 23.5683 76.0933H38.7324C39.1793 76.0933 39.6078 76.2708 39.9238 76.5868C40.2398 76.9027 40.4173 77.3313 40.4173 77.7782C40.4173 78.225 40.2398 78.6536 39.9238 78.9696C39.6078 79.2855 39.1793 79.4631 38.7324 79.4631Z" fill="#CCCCCC"/>
<path id="Vector_6" d="M106.023 107.456H80.5393C79.5901 107.455 78.68 107.077 78.0088 106.406C77.3375 105.735 76.96 104.825 76.9589 103.875V65.5794C76.96 64.6302 77.3375 63.7201 78.0088 63.0489C78.68 62.3777 79.5901 62.0001 80.5393 61.999H106.023C106.973 62.0001 107.883 62.3777 108.554 63.0489C109.225 63.7201 109.603 64.6302 109.604 65.5794V103.875C109.603 104.825 109.225 105.735 108.554 106.406C107.883 107.077 106.973 107.455 106.023 107.456ZM80.5393 62.4202C79.7018 62.4212 78.8987 62.7543 78.3065 63.3466C77.7142 63.9389 77.3811 64.7419 77.3801 65.5794V103.875C77.3811 104.713 77.7142 105.516 78.3065 106.108C78.8987 106.701 79.7018 107.034 80.5393 107.035H106.023C106.861 107.034 107.664 106.701 108.256 106.108C108.849 105.516 109.182 104.713 109.183 103.875V65.5794C109.182 64.7419 108.849 63.9389 108.256 63.3466C107.664 62.7543 106.861 62.4212 106.023 62.4202H80.5393Z" fill="#3F3D56"/>
<path id="Vector_7" d="M100.863 71.4601H85.6985C85.2516 71.4601 84.8231 71.2826 84.5071 70.9666C84.1911 70.6507 84.0136 70.2221 84.0136 69.7752C84.0136 69.3284 84.1911 68.8998 84.5071 68.5838C84.8231 68.2678 85.2516 68.0903 85.6985 68.0903H100.863C101.309 68.0903 101.738 68.2678 102.054 68.5838C102.37 68.8998 102.547 69.3284 102.547 69.7752C102.547 70.2221 102.37 70.6507 102.054 70.9666C101.738 71.2826 101.309 71.4601 100.863 71.4601Z" fill="#CCCCCC"/>
<path id="Vector_8" d="M100.863 77.778H85.6985C85.2516 77.778 84.8231 77.6005 84.5071 77.2845C84.1911 76.9685 84.0136 76.54 84.0136 76.0931C84.0136 75.6462 84.1911 75.2177 84.5071 74.9017C84.8231 74.5857 85.2516 74.4082 85.6985 74.4082H100.863C101.309 74.4082 101.738 74.5857 102.054 74.9017C102.37 75.2177 102.547 75.6462 102.547 76.0931C102.547 76.54 102.37 76.9685 102.054 77.2845C101.738 77.6005 101.309 77.778 100.863 77.778Z" fill="#CCCCCC"/>
<path id="Vector_9" d="M102.127 93.8902H84.4358C83.9612 93.8896 83.5062 93.7008 83.1706 93.3652C82.835 93.0296 82.6462 92.5746 82.6456 92.1V83.6755C82.6462 83.2008 82.835 82.7458 83.1706 82.4102C83.5062 82.0746 83.9612 81.8858 84.4358 81.8853H102.127C102.602 81.8858 103.057 82.0746 103.393 82.4102C103.728 82.7458 103.917 83.2008 103.917 83.6755V92.1C103.917 92.5746 103.728 93.0296 103.393 93.3652C103.057 93.7008 102.602 93.8896 102.127 93.8902Z" fill="#E6E6E6"/>
<path id="Vector_10" d="M100.863 101.367H85.6985C85.2516 101.367 84.8231 101.19 84.5071 100.874C84.1911 100.558 84.0136 100.129 84.0136 99.6825C84.0136 99.2356 84.1911 98.807 84.5071 98.4911C84.8231 98.1751 85.2516 97.9976 85.6985 97.9976H100.863C101.309 97.9976 101.738 98.1751 102.054 98.4911C102.37 98.807 102.547 99.2356 102.547 99.6825C102.547 100.129 102.37 100.558 102.054 100.874C101.738 101.19 101.309 101.367 100.863 101.367Z" fill="#CCCCCC"/>
<path id="Vector_11" d="M90.4371 46.5896H64.9529C64.0037 46.5885 63.0936 46.211 62.4224 45.5397C61.7512 44.8685 61.3736 43.9584 61.3725 43.0092V19.2455C61.3736 18.2962 61.7512 17.3861 62.4224 16.7149C63.0936 16.0437 64.0037 15.6661 64.9529 15.665H90.4371C91.3863 15.6661 92.2964 16.0437 92.9676 16.7149C93.6388 17.3861 94.0164 18.2962 94.0175 19.2455V43.0092C94.0164 43.9584 93.6388 44.8685 92.9676 45.5397C92.2964 46.211 91.3863 46.5885 90.4371 46.5896ZM64.9529 16.0863C64.1154 16.0872 63.3124 16.4204 62.7201 17.0126C62.1278 17.6049 61.7947 18.4079 61.7938 19.2455V43.0092C61.7947 43.8468 62.1278 44.6498 62.7201 45.242C63.3124 45.8343 64.1154 46.1674 64.9529 46.1684H90.4371C91.2746 46.1674 92.0776 45.8343 92.6699 45.242C93.2621 44.6498 93.5953 43.8468 93.5962 43.0092V19.2455C93.5953 18.4079 93.2621 17.6049 92.6699 17.0126C92.0776 16.4204 91.2746 16.0872 90.4371 16.0863H64.9529Z" fill="#3F3D56"/>
<path id="Vector_12" d="M85.2776 39.1315H70.1135C69.6667 39.1315 69.2381 38.954 68.9221 38.638C68.6061 38.322 68.4286 37.8935 68.4286 37.4466C68.4286 36.9998 68.6061 36.5712 68.9221 36.2552C69.2381 35.9392 69.6667 35.7617 70.1135 35.7617H85.2776C85.7245 35.7617 86.153 35.9392 86.469 36.2552C86.785 36.5712 86.9625 36.9998 86.9625 37.4466C86.9625 37.8935 86.785 38.322 86.469 38.638C86.153 38.954 85.7245 39.1315 85.2776 39.1315Z" fill="#CCCCCC"/>
<path id="Vector_13" d="M85.2776 32.8122H70.1135C69.6667 32.8122 69.2381 32.6347 68.9221 32.3187C68.6061 32.0027 68.4286 31.5741 68.4286 31.1273C68.4286 30.6804 68.6061 30.2519 68.9221 29.9359C69.2381 29.6199 69.6667 29.4424 70.1135 29.4424H85.2776C85.7245 29.4424 86.153 29.6199 86.469 29.9359C86.785 30.2519 86.9625 30.6804 86.9625 31.1273C86.9625 31.5741 86.785 32.0027 86.469 32.3187C86.153 32.6347 85.7245 32.8122 85.2776 32.8122Z" fill="#CCCCCC"/>
<path id="Vector_14" d="M45.3667 46.3786C48.042 46.3786 50.2107 44.2098 50.2107 41.5345C50.2107 38.8592 48.042 36.6904 45.3667 36.6904C42.6913 36.6904 40.5226 38.8592 40.5226 41.5345C40.5226 44.2098 42.6913 46.3786 45.3667 46.3786Z" fill="#00BAD2"/>
<path id="Vector_15" d="M44.8863 43.3838C44.7773 43.384 44.6712 43.3488 44.584 43.2834L44.5786 43.2793L43.4403 42.4077C43.3873 42.3674 43.3428 42.3171 43.3093 42.2595C43.2758 42.202 43.254 42.1384 43.2452 42.0724C43.2363 42.0065 43.2406 41.9394 43.2577 41.8751C43.2748 41.8107 43.3045 41.7504 43.345 41.6976C43.3854 41.6447 43.436 41.6004 43.4936 41.5671C43.5513 41.5339 43.6149 41.5123 43.6809 41.5037C43.747 41.4951 43.814 41.4996 43.8783 41.5169C43.9425 41.5343 44.0028 41.5641 44.0555 41.6048L44.7928 42.1702L46.5353 39.8977C46.5757 39.845 46.6261 39.8008 46.6836 39.7676C46.7411 39.7343 46.8046 39.7127 46.8705 39.7041C46.9363 39.6954 47.0032 39.6997 47.0674 39.7169C47.1316 39.7341 47.1917 39.7637 47.2444 39.8041L47.2336 39.8188L47.2447 39.8043C47.351 39.886 47.4206 40.0066 47.4381 40.1395C47.4557 40.2725 47.4198 40.4069 47.3383 40.5134L45.2887 43.1864C45.2413 43.248 45.1804 43.2979 45.1106 43.3321C45.0408 43.3663 44.9641 43.384 44.8863 43.3838Z" fill="white"/>
<g id="Vector_16">
<path d="M108.55 68.0724C111.226 68.0724 113.394 65.9037 113.394 63.2284C113.394 60.553 111.226 58.3843 108.55 58.3843C105.875 58.3843 103.706 60.553 103.706 63.2284C103.706 65.9037 105.875 68.0724 108.55 68.0724Z" fill="white"/>
<path d="M108.55 68.0724C111.226 68.0724 113.394 65.9037 113.394 63.2284C113.394 60.553 111.226 58.3843 108.55 58.3843C105.875 58.3843 103.706 60.553 103.706 63.2284C103.706 65.9037 105.875 68.0724 108.55 68.0724Z" fill="#00BAD2" fill-opacity="0.4"/>
</g>
<path id="Vector_17" d="M108.07 65.0767C107.961 65.0769 107.855 65.0416 107.768 64.9763L107.763 64.9722L106.624 64.1006C106.571 64.0603 106.527 64.01 106.493 63.9524C106.46 63.8949 106.438 63.8313 106.429 63.7653C106.42 63.6993 106.425 63.6323 106.442 63.5679C106.459 63.5036 106.489 63.4433 106.529 63.3905C106.57 63.3376 106.62 63.2933 106.678 63.26C106.735 63.2267 106.799 63.2052 106.865 63.1966C106.931 63.1879 106.998 63.1924 107.062 63.2098C107.127 63.2271 107.187 63.257 107.24 63.2977L107.977 63.8631L109.719 61.5906C109.76 61.5379 109.81 61.4937 109.868 61.4604C109.925 61.4272 109.989 61.4056 110.055 61.3969C110.12 61.3882 110.187 61.3926 110.252 61.4098C110.316 61.4269 110.376 61.4566 110.429 61.497L110.418 61.5117L110.429 61.4972C110.535 61.5789 110.605 61.6995 110.622 61.8324C110.64 61.9653 110.604 62.0998 110.522 62.2063L108.473 64.8793C108.425 64.9409 108.364 64.9907 108.295 65.025C108.225 65.0592 108.148 65.0769 108.07 65.0767Z" fill="white"/>
<g id="Vector_18">
<path d="M93.1759 21.1057C95.8513 21.1057 98.02 18.9369 98.02 16.2616C98.02 13.5863 95.8513 11.4175 93.1759 11.4175C90.5006 11.4175 88.3319 13.5863 88.3319 16.2616C88.3319 18.9369 90.5006 21.1057 93.1759 21.1057Z" fill="white"/>
<path d="M93.1759 21.1057C95.8513 21.1057 98.02 18.9369 98.02 16.2616C98.02 13.5863 95.8513 11.4175 93.1759 11.4175C90.5006 11.4175 88.3319 13.5863 88.3319 16.2616C88.3319 18.9369 90.5006 21.1057 93.1759 21.1057Z" fill="#00BAD2" fill-opacity="0.4"/>
</g>
<path id="Vector_19" d="M92.6951 18.1094C92.5862 18.1096 92.4801 18.0744 92.3929 18.009L92.3875 18.0049L91.2491 17.1333C91.1961 17.093 91.1516 17.0427 91.1181 16.9851C91.0846 16.9276 91.0628 16.864 91.054 16.798C91.0451 16.7321 91.0494 16.665 91.0665 16.6007C91.0836 16.5363 91.1133 16.476 91.1538 16.4232C91.1943 16.3703 91.2448 16.326 91.3024 16.2927C91.3601 16.2595 91.4238 16.2379 91.4898 16.2293C91.5558 16.2206 91.6228 16.2251 91.6871 16.2425C91.7514 16.2599 91.8116 16.2897 91.8643 16.3304L92.6016 16.8958L94.3441 14.6233C94.3845 14.5706 94.4349 14.5264 94.4925 14.4931C94.55 14.4599 94.6134 14.4383 94.6793 14.4296C94.7451 14.421 94.8121 14.4253 94.8762 14.4425C94.9404 14.4597 95.0005 14.4893 95.0532 14.5297L95.0424 14.5444L95.0535 14.5299C95.1598 14.6116 95.2294 14.7322 95.2469 14.8651C95.2645 14.9981 95.2286 15.1325 95.1471 15.239L93.0975 17.912C93.0501 17.9736 92.9892 18.0235 92.9194 18.0577C92.8496 18.0919 92.7729 18.1096 92.6951 18.1094Z" fill="white"/>
</g>
</g>
</svg>
