<svg width="141" height="137" viewBox="0 0 141 137" fill="none" xmlns="http://www.w3.org/2000/svg">
<g clip-path="url(#clip0_1575_27794)">
<path d="M89.5121 30.8108H51.5188C50.653 30.8119 49.8229 31.1547 49.2107 31.7641C48.5985 32.3735 48.2541 33.1997 48.2531 34.0615V118.113L47.8176 118.246L38.4972 121.087C38.0555 121.221 37.5784 121.175 37.1707 120.959C36.7629 120.743 36.4578 120.375 36.3223 119.936L8.59846 29.7944C8.46354 29.3547 8.50953 28.8797 8.72631 28.4738C8.94309 28.0678 9.31292 27.7641 9.75454 27.6295L24.1172 23.2519L65.7552 10.5655L80.1178 6.18793C80.3363 6.12097 80.5661 6.09757 80.7937 6.11907C81.0214 6.14057 81.2426 6.20655 81.4446 6.31324C81.6466 6.41992 81.8255 6.56521 81.9711 6.7408C82.1166 6.91638 82.2259 7.11881 82.2928 7.3365L89.3794 30.3774L89.5121 30.8108Z" fill="#F2F2F2"/>
<path d="M97.8029 30.3776L89.2619 2.60807C89.1198 2.14538 88.8875 1.71509 88.5783 1.3418C88.2691 0.968507 87.889 0.659525 87.4598 0.43251C87.0305 0.205494 86.5605 0.0648923 86.0767 0.0187436C85.5928 -0.0274051 85.1046 0.021804 84.6399 0.163554L64.4468 6.31602L22.8111 19.0045L2.61805 25.1592C1.67998 25.4459 0.894531 26.0914 0.434095 26.954C-0.0263415 27.8165 -0.124145 28.8257 0.162157 29.76L29.3534 124.665C29.586 125.419 30.0552 126.079 30.6924 126.548C31.3295 127.018 32.1009 127.271 32.8935 127.272C33.2603 127.272 33.625 127.217 33.9755 127.109L47.8178 122.892L48.2532 122.758V122.305L47.8178 122.437L33.847 126.696C33.019 126.947 32.1247 126.861 31.3603 126.457C30.5958 126.052 30.0236 125.363 29.7692 124.539L0.580259 29.6321C0.454222 29.224 0.410295 28.7952 0.450991 28.3702C0.491687 27.9452 0.616205 27.5323 0.817421 27.1553C1.01864 26.7783 1.2926 26.4444 1.62361 26.1729C1.95463 25.9014 2.33619 25.6976 2.74646 25.5731L22.9395 19.4185L64.5753 6.73211L84.7684 0.577479C85.0796 0.482949 85.4031 0.43475 85.7284 0.434448C86.4267 0.436008 87.1061 0.66008 87.6671 1.07384C88.2282 1.4876 88.6413 2.06931 88.8462 2.73377L97.3479 30.3776L97.4829 30.811H97.9358L97.8029 30.3776Z" fill="#3F3D56"/>
<path d="M26.7093 27.7009C26.2897 27.7006 25.8812 27.5664 25.5438 27.3181C25.2064 27.0698 24.9578 26.7204 24.8345 26.3211L22.0302 17.2036C21.9549 16.9587 21.9287 16.7014 21.9533 16.4465C21.9778 16.1915 22.0526 15.9438 22.1733 15.7176C22.294 15.4914 22.4584 15.2911 22.6569 15.1281C22.8554 14.9651 23.0842 14.8427 23.3302 14.7677L61.6348 3.09477C62.1317 2.94384 62.6684 2.99532 63.1273 3.2379C63.5861 3.48049 63.9295 3.89437 64.082 4.3887L66.8863 13.5063C67.0378 14.0009 66.9861 14.5352 66.7424 14.9918C66.4987 15.4485 66.0829 15.7903 65.5864 15.9423L27.2817 27.6152C27.0963 27.6719 26.9033 27.7008 26.7093 27.7009Z" fill="#00BAD2"/>
<path d="M41.3992 9.74272C43.804 9.74272 45.7535 7.80221 45.7535 5.40847C45.7535 3.01473 43.804 1.07422 41.3992 1.07422C38.9944 1.07422 37.0449 3.01473 37.0449 5.40847C37.0449 7.80221 38.9944 9.74272 41.3992 9.74272Z" fill="#00BAD2"/>
<path d="M41.3989 8.15225C42.9217 8.15225 44.1562 6.92346 44.1562 5.40767C44.1562 3.89188 42.9217 2.66309 41.3989 2.66309C39.8761 2.66309 38.6416 3.89188 38.6416 5.40767C38.6416 6.92346 39.8761 8.15225 41.3989 8.15225Z" fill="white"/>
<path d="M131.203 126.165H57.6152C57.1246 126.164 56.6542 125.97 56.3073 125.624C55.9604 125.279 55.7652 124.811 55.7646 124.323V36.554C55.7652 36.0656 55.9603 35.5974 56.3073 35.252C56.6542 34.9067 57.1246 34.7125 57.6152 34.7119H131.203C131.693 34.7125 132.164 34.9067 132.511 35.2521C132.858 35.5974 133.053 36.0656 133.053 36.554V124.323C133.053 124.811 132.858 125.279 132.511 125.624C132.164 125.97 131.693 126.164 131.203 126.165Z" fill="#E6E6E6"/>
<path d="M97.3485 30.377H51.5195C50.5383 30.3783 49.5977 30.7669 48.9039 31.4575C48.2101 32.1481 47.8197 33.0844 47.8184 34.0611V122.436L48.2538 122.304V34.0611C48.2548 33.1993 48.5992 32.373 49.2115 31.7636C49.8237 31.1542 50.6537 30.8114 51.5195 30.8104H97.4835L97.3485 30.377ZM137.299 30.377H51.5195C50.5383 30.3783 49.5977 30.7669 48.9039 31.4575C48.2101 32.1481 47.8197 33.0844 47.8184 34.0611V133.315C47.8197 134.292 48.2101 135.228 48.9039 135.919C49.5977 136.61 50.5383 136.998 51.5195 137H137.299C138.28 136.998 139.221 136.61 139.915 135.919C140.609 135.228 140.999 134.292 141 133.315V34.0611C140.999 33.0844 140.609 32.1481 139.915 31.4575C139.221 30.7669 138.28 30.3783 137.299 30.377ZM140.565 133.315C140.564 134.177 140.219 135.003 139.607 135.613C138.995 136.222 138.165 136.565 137.299 136.566H51.5195C50.6537 136.565 49.8237 136.222 49.2115 135.613C48.5992 135.003 48.2548 134.177 48.2538 133.315V34.0611C48.2548 33.1993 48.5992 32.373 49.2115 31.7636C49.8237 31.1542 50.6537 30.8114 51.5195 30.8104H137.299C138.165 30.8114 138.995 31.1542 139.607 31.7636C140.219 32.373 140.564 33.1993 140.565 34.0611V133.315Z" fill="#3F3D56"/>
<path d="M114.439 39.9127H74.3794C73.8599 39.9122 73.3618 39.7065 72.9945 39.3408C72.6271 38.9752 72.4205 38.4794 72.4199 37.9623V28.427C72.4205 27.9099 72.6271 27.4141 72.9945 27.0485C73.3618 26.6828 73.8599 26.4771 74.3794 26.4766H114.439C114.958 26.4771 115.456 26.6828 115.824 27.0485C116.191 27.4141 116.398 27.9099 116.398 28.427V37.9623C116.398 38.4794 116.191 38.9752 115.824 39.3408C115.456 39.7065 114.958 39.9122 114.439 39.9127Z" fill="#00BAD2"/>
<path d="M94.409 27.1265C96.8138 27.1265 98.7633 25.186 98.7633 22.7923C98.7633 20.3985 96.8138 18.458 94.409 18.458C92.0042 18.458 90.0547 20.3985 90.0547 22.7923C90.0547 25.186 92.0042 27.1265 94.409 27.1265Z" fill="#00BAD2"/>
<path d="M94.409 25.4323C95.8738 25.4323 97.0612 24.2503 97.0612 22.7923C97.0612 21.3343 95.8738 20.1523 94.409 20.1523C92.9443 20.1523 91.7568 21.3343 91.7568 22.7923C91.7568 24.2503 92.9443 25.4323 94.409 25.4323Z" fill="white"/>
</g>
<defs>
<clipPath id="clip0_1575_27794">
<rect width="141" height="137" fill="white"/>
</clipPath>
</defs>
</svg>
